<mxfile host="app.diagrams.net" modified="2023-09-29T21:15:38.320Z" agent="Mozilla/5.0 (Windows NT 10.0; Win64; x64) AppleWebKit/537.36 (KHTML, like Gecko) Chrome/116.0.0.0 Safari/537.36" etag="XKcPzAiuceg9nlHofhrW" version="21.6.9" type="github">
  <diagram name="Page-1" id="bvVSkSku8XtShaPJZtDO">
    <mxGraphModel dx="977" dy="536" grid="1" gridSize="10" guides="1" tooltips="1" connect="1" arrows="1" fold="1" page="1" pageScale="1" pageWidth="850" pageHeight="1100" math="0" shadow="0">
      <root>
        <mxCell id="0" />
        <mxCell id="1" parent="0" />
        <mxCell id="GyokCEffY0JCVMJNIKrg-1" value="&lt;font style=&quot;font-size: 20px;&quot;&gt;Purchase List App&lt;/font&gt;" style="rounded=0;whiteSpace=wrap;html=1;" vertex="1" parent="1">
          <mxGeometry x="20" y="50" width="810" height="60" as="geometry" />
        </mxCell>
        <mxCell id="GyokCEffY0JCVMJNIKrg-3" value="Priduct" style="rounded=1;whiteSpace=wrap;html=1;" vertex="1" parent="1">
          <mxGeometry x="110" y="150" width="280" height="30" as="geometry" />
        </mxCell>
        <mxCell id="GyokCEffY0JCVMJNIKrg-4" value="Number of Products" style="rounded=1;whiteSpace=wrap;html=1;" vertex="1" parent="1">
          <mxGeometry x="400" y="150" width="280" height="30" as="geometry" />
        </mxCell>
        <mxCell id="GyokCEffY0JCVMJNIKrg-5" value="Add" style="rounded=1;whiteSpace=wrap;html=1;" vertex="1" parent="1">
          <mxGeometry x="690" y="150" width="40" height="30" as="geometry" />
        </mxCell>
        <mxCell id="GyokCEffY0JCVMJNIKrg-6" value="Name of Product and Number Displayed" style="rounded=1;whiteSpace=wrap;html=1;" vertex="1" parent="1">
          <mxGeometry x="240" y="210" width="340" height="30" as="geometry" />
        </mxCell>
        <mxCell id="GyokCEffY0JCVMJNIKrg-7" value="Delete" style="rounded=1;whiteSpace=wrap;html=1;" vertex="1" parent="1">
          <mxGeometry x="300" y="250" width="70" height="30" as="geometry" />
        </mxCell>
        <mxCell id="GyokCEffY0JCVMJNIKrg-8" value="Edit" style="rounded=1;whiteSpace=wrap;html=1;" vertex="1" parent="1">
          <mxGeometry x="420" y="250" width="70" height="30" as="geometry" />
        </mxCell>
        <mxCell id="GyokCEffY0JCVMJNIKrg-10" value="Number of Products" style="rounded=1;whiteSpace=wrap;html=1;" vertex="1" parent="1">
          <mxGeometry x="400" y="340" width="280" height="30" as="geometry" />
        </mxCell>
        <mxCell id="GyokCEffY0JCVMJNIKrg-11" value="Priduct" style="rounded=1;whiteSpace=wrap;html=1;" vertex="1" parent="1">
          <mxGeometry x="110" y="340" width="280" height="30" as="geometry" />
        </mxCell>
        <mxCell id="GyokCEffY0JCVMJNIKrg-12" value="Update" style="rounded=1;whiteSpace=wrap;html=1;" vertex="1" parent="1">
          <mxGeometry x="690" y="340" width="50" height="30" as="geometry" />
        </mxCell>
        <mxCell id="GyokCEffY0JCVMJNIKrg-13" value="Delete" style="rounded=1;whiteSpace=wrap;html=1;" vertex="1" parent="1">
          <mxGeometry x="300" y="390" width="70" height="30" as="geometry" />
        </mxCell>
        <mxCell id="GyokCEffY0JCVMJNIKrg-14" value="Edit" style="rounded=1;whiteSpace=wrap;html=1;" vertex="1" parent="1">
          <mxGeometry x="420" y="390" width="70" height="30" as="geometry" />
        </mxCell>
        <mxCell id="GyokCEffY0JCVMJNIKrg-17" value="Name of Product and Number Displayed" style="rounded=1;whiteSpace=wrap;html=1;" vertex="1" parent="1">
          <mxGeometry x="240" y="470" width="340" height="30" as="geometry" />
        </mxCell>
        <mxCell id="GyokCEffY0JCVMJNIKrg-18" value="Delete" style="rounded=1;whiteSpace=wrap;html=1;" vertex="1" parent="1">
          <mxGeometry x="300" y="520" width="70" height="30" as="geometry" />
        </mxCell>
        <mxCell id="GyokCEffY0JCVMJNIKrg-19" value="Edit" style="rounded=1;whiteSpace=wrap;html=1;" vertex="1" parent="1">
          <mxGeometry x="420" y="520" width="70" height="30" as="geometry" />
        </mxCell>
      </root>
    </mxGraphModel>
  </diagram>
</mxfile>
